<?xml version="1.0" encoding="UTF-8"?>
<!-- Generator: Adobe Illustrator 19.2.0, SVG Export Plug-In . SVG Version: 6.00 Build 0)  -->
<svg version="1.1" id="Layer_1" xmlns="http://www.w3.org/2000/svg" xmlns:xlink="http://www.w3.org/1999/xlink" x="0px" y="0px" width="949.1px" height="502px" viewBox="0 0 949.1 502" style="enable-background:new 0 0 949.1 502;" xml:space="preserve">
<style type="text/css">
	.st0{fill:#313131;}
	.st1{fill:#767676;}
	.st2{clip-path:url(#SVGID_2_);fill:url(#SVGID_3_);}
	.st3{clip-path:url(#SVGID_5_);fill:url(#SVGID_6_);}
	.st4{filter:url(#Adobe_OpacityMaskFilter);}
	.st5{enable-background:new    ;}
	.st6{opacity:0.1;mask:url(#SVGID_7_);}
	.st7{clip-path:url(#SVGID_11_);fill-rule:evenodd;clip-rule:evenodd;fill:#FFFFFF;}
</style>
<path class="st0" d="M15.1,186.1h21.3v17.3h0.5c1.4-3,3.3-5.7,5.7-8.2c2.4-2.4,5-4.5,7.9-6.3c2.9-1.7,6.1-3.1,9.6-4.1  c3.5-1,6.9-1.5,10.4-1.5c3.5,0,6.6,0.5,9.5,1.4l-0.9,23c-1.7-0.5-3.5-0.9-5.2-1.2c-1.7-0.3-3.5-0.5-5.2-0.5  c-10.4,0-18.4,2.9-23.9,8.8c-5.5,5.8-8.3,14.9-8.3,27.2v56.4H15.1V186.1z"/>
<path class="st0" d="M93,242.3c0-8.2,1.5-15.9,4.6-23c3.1-7.1,7.3-13.3,12.7-18.7c5.4-5.4,11.7-9.6,18.9-12.7  c7.3-3.1,15.1-4.6,23.4-4.6c8.4,0,16.2,1.5,23.4,4.6c7.3,3.1,13.6,7.3,18.9,12.7c5.4,5.4,9.6,11.6,12.7,18.7  c3.1,7.1,4.6,14.8,4.6,23c0,8.2-1.5,15.9-4.6,23.1c-3.1,7.2-7.3,13.4-12.7,18.7c-5.4,5.3-11.7,9.5-18.9,12.5  c-7.3,3.1-15.1,4.6-23.4,4.6c-8.4,0-16.2-1.5-23.4-4.6c-7.3-3.1-13.6-7.3-18.9-12.5c-5.4-5.3-9.6-11.5-12.7-18.7  C94.6,258.2,93,250.5,93,242.3 M115.8,242.3c0,5.7,0.9,10.9,2.6,15.7c1.7,4.8,4.2,8.9,7.3,12.3c3.2,3.4,7,6.1,11.6,8.1  c4.6,2,9.7,3,15.4,3c5.7,0,10.8-1,15.4-3c4.6-2,8.4-4.7,11.6-8.1c3.2-3.4,5.6-7.5,7.3-12.3c1.7-4.8,2.6-10.1,2.6-15.7  c0-5.7-0.9-10.9-2.6-15.7c-1.7-4.8-4.2-8.9-7.3-12.3c-3.2-3.4-7-6.1-11.6-8.1c-4.6-2-9.7-3-15.4-3c-5.7,0-10.8,1-15.4,3  c-4.6,2-8.4,4.7-11.6,8.1c-3.2,3.4-5.6,7.5-7.3,12.3C116.6,231.3,115.8,236.6,115.8,242.3"/>
<path class="st0" d="M239.1,119.4h21.3v84.1h0.5c2.7-6,7.3-10.9,14-14.6c6.6-3.7,14.3-5.6,23-5.6c5.4,0,10.5,0.8,15.5,2.5  c5,1.7,9.3,4.2,13,7.7c3.7,3.5,6.7,7.9,8.9,13.4c2.2,5.4,3.3,11.9,3.3,19.3v72.2h-21.3v-66.3c0-5.2-0.7-9.7-2.1-13.4  c-1.4-3.7-3.3-6.7-5.7-9c-2.4-2.3-5.1-3.9-8.2-5c-3.1-1-6.3-1.5-9.6-1.5c-4.4,0-8.5,0.7-12.3,2.1c-3.8,1.4-7.1,3.7-9.9,6.7  c-2.8,3.1-5.1,7-6.6,11.7c-1.6,4.7-2.4,10.3-2.4,16.8v57.8h-21.3V119.4z"/>
<rect x="372.4" y="119.4" class="st0" width="21.3" height="179"/>
<path class="st0" d="M424.3,145.9c0-4.3,1.5-7.9,4.6-11c3.1-3.1,6.7-4.6,11-4.6c4.3,0,7.9,1.5,11,4.6c3.1,3.1,4.6,6.7,4.6,11  c0,4.3-1.5,7.9-4.6,11c-3.1,3.1-6.7,4.6-11,4.6c-4.3,0-7.9-1.5-11-4.6C425.8,153.8,424.3,150.2,424.3,145.9 M429.2,186.1h21.3v112.2  h-21.3V186.1z"/>
<polygon class="st0" points="484.4,119.4 505.7,119.4 505.7,234.9 554,186.4 583.6,186.4 531.3,237.3 588.1,298.4 557.8,298.4   505.7,240.1 505.7,298.4 484.4,298.4 "/>
<path class="st1" d="M408.4,428.1c0-2.3,0.8-4.2,2.4-5.7c1.6-1.6,3.5-2.4,5.7-2.4c2.3,0,4.2,0.8,5.7,2.4c1.6,1.6,2.4,3.5,2.4,5.7  c0,2.2-0.8,4.2-2.4,5.7c-1.6,1.6-3.5,2.4-5.7,2.4c-2.2,0-4.1-0.8-5.7-2.4C409.2,432.2,408.4,430.3,408.4,428.1"/>
<path class="st1" d="M517.1,423.7c-3.8,4.6-8.1,8-13,10.2c-4.8,2.2-10,3.3-15.7,3.3c-6,0-11.4-1-16.5-3c-5.1-2-9.4-4.9-13-8.5  c-3.6-3.6-6.4-8-8.4-13c-2-5-3-10.5-3-16.4c0-5.9,1-11.4,3-16.4c2-5,4.8-9.3,8.4-13c3.6-3.6,7.9-6.5,13-8.5c5.1-2,10.6-3,16.5-3  c5.7,0,11,1.2,15.9,3.5c4.9,2.4,9.2,5.7,13.1,9.9l-8.1,6.1c-2.9-3.2-6.1-5.8-9.6-7.7c-3.5-1.9-7.2-2.8-11.3-2.8  c-4.7,0-9,0.8-12.8,2.5c-3.8,1.7-7.1,4-9.8,6.8c-2.7,2.9-4.7,6.2-6.1,10.1c-1.4,3.9-2.1,8-2.1,12.4c0,4.4,0.7,8.5,2.1,12.4  c1.4,3.9,3.5,7.2,6.1,10.1c2.7,2.9,6,5.1,9.8,6.8c3.8,1.7,8.1,2.5,12.8,2.5c4.3,0,8.2-1,11.7-2.9c3.5-2,6.6-4.6,9.2-7.8L517.1,423.7  z"/>
<polygon class="st1" points="524,429.1 570.6,366.5 526.3,366.5 526.3,357.4 584.6,357.4 584.6,363.4 538.1,426.1 586.6,426.1   586.6,435.2 524,435.2 "/>
<g>
	<defs>
		<path id="SVGID_1_" d="M853.6,401.1c-39.7,7.5-64.5,42.1-60.3,46.3c4.2,4.1,26.9,17.6,28.8,16.1c24.7-20.7,70.4-22.2,74.3-17.5    c3.9,4.7-4-41.1-4-41.1s-4.4-5.6-20.5-5.6C867,399.2,861,399.7,853.6,401.1 M799.9,333.1c-39.7,7.5-64.5,42.1-60.3,46.3    c4.2,4.1,16.9,50.1,18.4,48.1c20-26.5,59.2-53.2,84.7-49.6c3.6,0.5,4.7-13.4,2.8-24.9c-1.3-7.8-5.5-14.7-5.5-14.7    s-0.9-7.4-19.1-7.4C815.5,330.8,808.6,331.4,799.9,333.1 M778.7,139.1c-20.3,15.9-64.8,13.9-95.3,1c-2.3-1,6.8,43.6,5.3,49.3    c-1.5,5.6,37.2,23.3,75.4,9.9c37-13,32.2-24.5,32.2-24.5s1.1-5.2-1-11.1c-3.8-10.6-12-24.9-15.7-24.9    C779.2,138.9,778.9,139,778.7,139.1 M790.4,56c-1.1,6-41.4,27.5-73.1,22c-2.5-0.4-15.4,22.7-16.9,28.3    c-1.5,5.6,37.2,23.3,75.4,9.9c30-10.5,32.6-23.4,32.6-23.4s0.9-10.2-0.5-15.1c-3.1-10.8-13.8-22.3-16.7-22.3    C790.7,55.3,790.5,55.5,790.4,56"/>
	</defs>
	<clipPath id="SVGID_2_">
		<use xlink:href="#SVGID_1_" style="overflow:visible;"/>
	</clipPath>
	
		<linearGradient id="SVGID_3_" gradientUnits="userSpaceOnUse" x1="174.5472" y1="676.7896" x2="178.5468" y2="676.7896" gradientTransform="matrix(-66.4874 30.6865 30.6865 66.4874 -8199.2529 -50173.9648)">
		<stop offset="0" style="stop-color:#9D5D00"/>
		<stop offset="1" style="stop-color:#E58035"/>
	</linearGradient>
	<polygon class="st2" points="1056.2,393.1 719.6,548.5 525.2,127.3 861.9,-28.1  "/>
</g>
<g>
	<defs>
		<path id="SVGID_4_" d="M883.4,447.6c-7.8,14.9-23.7,25.8-32.1,29c13.6,3.6,27.6,6.1,41.8,7.3c0-0.1,0-0.1,0-0.2    c4,0.5,8.2,0.2,12.4-0.9c17.5-4.7,27.9-22.7,23.2-40.3c-2.5-9.2-9.4-17.1-17.1-21.2c-7.3-5.6-13.4-11.3-20.3-17.8    C892,407.7,894.3,426.8,883.4,447.6 M780.4,445.6c12.2,7.7,25,14.4,38.4,20c5.3-2.2,20-11.1,36.8-39.3    c15.6-26.1,10.8-49.8,10.8-49.8c-9.9-12.3-19-25.7-27.2-40C842.7,362.7,812.1,420.8,780.4,445.6 M671.8,297.6    c14.4,53.8,45.1,98.9,85.4,131.3c46.9-31.4,69.2-99.9,50.6-169.3c-18.4-68.6-70.9-116.5-126.6-121.2    C661.7,187.4,657.1,242.8,671.8,297.6 M715.8,77.9c-8.4,10.9-15.9,22.6-22.5,34.7c39.1,6.1,92.2,39.4,103.3,64.8    c-0.1-16.3,1.1-32.2,3.5-47.6c-4-9.8-17.2-26.4-31.2-35.6c-21.5-14.2-39.1-16.6-48.4-16.6C718.6,77.7,717,77.8,715.8,77.9     M782.9,19.2c-2.5,0.7-4.9,1.7-7.1,2.9c0,0,0-0.1,0-0.1c-13.7,9.1-26.3,19.4-37.7,30.8c7.9-2,27.1-1,41.9,8.5    c19.4,12.4,26.7,28.4,28.4,32.5c3.2-10.7,7-21.1,11.4-31c-0.1,0-0.1,0-0.2,0c2.9-6.4,3.8-13.9,1.8-21.2    c-3.8-14-16.4-23.3-30.2-23.3C788.3,18.2,785.6,18.5,782.9,19.2"/>
	</defs>
	<clipPath id="SVGID_5_">
		<use xlink:href="#SVGID_4_" style="overflow:visible;"/>
	</clipPath>
	
		<linearGradient id="SVGID_6_" gradientUnits="userSpaceOnUse" x1="175.4397" y1="670.3464" x2="179.4403" y2="670.3464" gradientTransform="matrix(68.0947 -196.1429 -196.1429 -68.0947 120114.8906 80936.1562)">
		<stop offset="0" style="stop-color:#CE7014"/>
		<stop offset="4.384600e-04" style="stop-color:#CE7014"/>
		<stop offset="1" style="stop-color:#FBBD47"/>
	</linearGradient>
	<polygon class="st3" points="512.7,434.1 686.9,-67.4 1077.8,68.3 903.7,569.9  "/>
</g>
<defs>
	<filter id="Adobe_OpacityMaskFilter" filterUnits="userSpaceOnUse" x="663.2" y="18.2" width="266.7" height="465.8">
		
			<feColorMatrix type="matrix" values="-1 0 0 0 1  0 -1 0 0 1  0 0 -1 0 1  0 0 0 1 0" color-interpolation-filters="sRGB" result="source"/>
	</filter>
</defs>
<mask maskUnits="userSpaceOnUse" x="663.2" y="18.2" width="266.7" height="465.8" id="SVGID_7_">
	<g class="st4">
		<g class="st5">
			<g>
				<defs>
					<rect id="SVGID_8_" x="655.2" y="10.2" width="283.2" height="481.9"/>
				</defs>
				<clipPath id="SVGID_9_">
					<use xlink:href="#SVGID_8_" style="overflow:visible;"/>
				</clipPath>
				<g style="clip-path:url(#SVGID_9_);">
					
						<image style="overflow:visible;" width="295" height="502" xlink:href="81D236390EAA516E.jpg" transform="matrix(0.96 0 0 0.96 655.1581 10.1765)">
					</image>
				</g>
			</g>
		</g>
	</g>
</mask>
<g class="st6">
	<g>
		<defs>
			<rect id="SVGID_10_" x="663.2" y="18.2" width="266.7" height="465.8"/>
		</defs>
		<clipPath id="SVGID_11_">
			<use xlink:href="#SVGID_10_" style="overflow:visible;"/>
		</clipPath>
		<path class="st7" d="M796.6,177.4c-0.1-16.3,1.1-32.2,3.5-47.6c-4-9.8-17.2-26.4-31.2-35.6c-26.2-17.3-46.5-17-53.2-16.3    c-8.4,10.9-15.9,22.6-22.5,34.7C732.4,118.7,785.5,152,796.6,177.4 M866.4,376.5c-9.9-12.3-19-25.7-27.2-40    c3.4,26.2-27.1,84.4-58.8,109.1c12.2,7.7,25,14.4,38.4,20c5.3-2.2,20-11.1,36.8-39.3C871.2,400.2,866.4,376.5,866.4,376.5     M779.9,61.2c19.4,12.4,26.7,28.4,28.4,32.5c3.2-10.7,7-21.1,11.4-31c-0.1,0-0.1,0-0.2,0c2.9-6.4,3.8-13.9,1.8-21.2    c-4.5-16.7-21.6-26.7-38.3-22.2c-2.5,0.7-4.9,1.7-7.1,2.9c0,0,0-0.1,0-0.1c-13.7,9.1-26.3,19.4-37.8,30.8    C745.9,50.8,765,51.8,779.9,61.2 M928.7,442.6c-2.5-9.2-9.4-17.1-17.1-21.2c-7.3-5.6-13.4-11.3-20.3-17.8c0.7,4.1,3,23.1-7.9,44    c-7.8,14.9-23.7,25.8-32.1,29c13.6,3.6,27.6,6.1,41.8,7.3c0-0.1,0-0.1,0-0.2c4,0.5,8.2,0.2,12.4-0.9    C923,478.2,933.4,460.2,928.7,442.6 M807.8,259.6c-18.4-68.6-70.9-116.5-126.5-121.2c-19.6,48.9-24.1,104.4-9.4,159.2    c14.4,53.8,45.1,98.9,85.4,131.3C804.1,397.6,826.4,329,807.8,259.6"/>
	</g>
</g>
</svg>