<?xml version="1.0" encoding="UTF-8"?>
<!DOCTYPE svg PUBLIC "-//W3C//DTD SVG 1.1//EN" "http://www.w3.org/Graphics/SVG/1.1/DTD/svg11.dtd">
<svg width="160mm" height="90mm" viewBox="0 0 16000 9000" version="1.1" baseProfile="tiny" xmlns="http://www.w3.org/2000/svg" stroke-width="28.222" stroke-linejoin="round" xml:space="preserve">
 <path fill="rgb(255,255,255)" stroke="none" d="M 7999,8999 L -1,8999 -1,0 15998,0 15998,8999 7999,8999 Z"/>
 <path fill="none" stroke="rgb(179,179,179)" stroke-linejoin="round" d="M 8873,7774 L 2208,7774 2208,2257 15539,2257 15539,7774 8873,7774 Z"/>
 <path fill="none" stroke="rgb(179,179,179)" stroke-linejoin="round" d="M 2208,2256 L 2208,7773"/>
 <path fill="none" stroke="rgb(179,179,179)" stroke-linejoin="round" d="M 6652,2256 L 6652,7773"/>
 <path fill="none" stroke="rgb(179,179,179)" stroke-linejoin="round" d="M 11095,2256 L 11095,7773"/>
 <path fill="none" stroke="rgb(179,179,179)" stroke-linejoin="round" d="M 15539,2256 L 15539,7773"/>
 <path fill="none" stroke="rgb(179,179,179)" stroke-linejoin="round" d="M 15539,7773 L 2208,7773"/>
 <path fill="none" stroke="rgb(179,179,179)" stroke-linejoin="round" d="M 15539,7083 L 2208,7083"/>
 <path fill="none" stroke="rgb(179,179,179)" stroke-linejoin="round" d="M 15539,6393 L 2208,6393"/>
 <path fill="none" stroke="rgb(179,179,179)" stroke-linejoin="round" d="M 15539,5703 L 2208,5703"/>
 <path fill="none" stroke="rgb(179,179,179)" stroke-linejoin="round" d="M 15539,5014 L 2208,5014"/>
 <path fill="none" stroke="rgb(179,179,179)" stroke-linejoin="round" d="M 15539,4325 L 2208,4325"/>
 <path fill="none" stroke="rgb(179,179,179)" stroke-linejoin="round" d="M 15539,3635 L 2208,3635"/>
 <path fill="none" stroke="rgb(179,179,179)" stroke-linejoin="round" d="M 15539,2945 L 2208,2945"/>
 <path fill="none" stroke="rgb(179,179,179)" stroke-linejoin="round" d="M 15539,2256 L 2208,2256"/>
 <path fill="none" stroke="rgb(179,179,179)" stroke-linejoin="round" d="M 2208,7923 L 2208,7773"/>
 <path fill="none" stroke="rgb(179,179,179)" stroke-linejoin="round" d="M 2208,7923 L 2208,7773"/>
 <path fill="none" stroke="rgb(179,179,179)" stroke-linejoin="round" d="M 6652,7923 L 6652,7773"/>
 <path fill="none" stroke="rgb(179,179,179)" stroke-linejoin="round" d="M 6652,7923 L 6652,7773"/>
 <path fill="none" stroke="rgb(179,179,179)" stroke-linejoin="round" d="M 11095,7923 L 11095,7773"/>
 <path fill="none" stroke="rgb(179,179,179)" stroke-linejoin="round" d="M 11095,7923 L 11095,7773"/>
 <path fill="none" stroke="rgb(179,179,179)" stroke-linejoin="round" d="M 15539,7923 L 15539,7773"/>
 <path fill="none" stroke="rgb(179,179,179)" stroke-linejoin="round" d="M 15539,7923 L 15539,7773"/>
 <path fill="none" stroke="rgb(179,179,179)" stroke-linejoin="round" d="M 2208,7773 L 15539,7773"/>
 <path fill="none" stroke="rgb(179,179,179)" stroke-linejoin="round" d="M 2058,7773 L 2208,7773"/>
 <path fill="none" stroke="rgb(179,179,179)" stroke-linejoin="round" d="M 2058,7773 L 2208,7773"/>
 <path fill="none" stroke="rgb(179,179,179)" stroke-linejoin="round" d="M 2058,7083 L 2208,7083"/>
 <path fill="none" stroke="rgb(179,179,179)" stroke-linejoin="round" d="M 2058,7083 L 2208,7083"/>
 <path fill="none" stroke="rgb(179,179,179)" stroke-linejoin="round" d="M 2058,6393 L 2208,6393"/>
 <path fill="none" stroke="rgb(179,179,179)" stroke-linejoin="round" d="M 2058,6393 L 2208,6393"/>
 <path fill="none" stroke="rgb(179,179,179)" stroke-linejoin="round" d="M 2058,5703 L 2208,5703"/>
 <path fill="none" stroke="rgb(179,179,179)" stroke-linejoin="round" d="M 2058,5703 L 2208,5703"/>
 <path fill="none" stroke="rgb(179,179,179)" stroke-linejoin="round" d="M 2058,5014 L 2208,5014"/>
 <path fill="none" stroke="rgb(179,179,179)" stroke-linejoin="round" d="M 2058,5014 L 2208,5014"/>
 <path fill="none" stroke="rgb(179,179,179)" stroke-linejoin="round" d="M 2058,4325 L 2208,4325"/>
 <path fill="none" stroke="rgb(179,179,179)" stroke-linejoin="round" d="M 2058,4325 L 2208,4325"/>
 <path fill="none" stroke="rgb(179,179,179)" stroke-linejoin="round" d="M 2058,3635 L 2208,3635"/>
 <path fill="none" stroke="rgb(179,179,179)" stroke-linejoin="round" d="M 2058,3635 L 2208,3635"/>
 <path fill="none" stroke="rgb(179,179,179)" stroke-linejoin="round" d="M 2058,2945 L 2208,2945"/>
 <path fill="none" stroke="rgb(179,179,179)" stroke-linejoin="round" d="M 2058,2945 L 2208,2945"/>
 <path fill="none" stroke="rgb(179,179,179)" stroke-linejoin="round" d="M 2058,2256 L 2208,2256"/>
 <path fill="none" stroke="rgb(179,179,179)" stroke-linejoin="round" d="M 2058,2256 L 2208,2256"/>
 <path fill="none" stroke="rgb(179,179,179)" stroke-linejoin="round" d="M 2208,7773 L 2208,2256"/>
 <path fill="rgb(0,69,134)" stroke="none" d="M 11650,7773 L 12761,7773 12761,6188 11650,6188 11650,7773 Z"/>
 <path fill="rgb(0,69,134)" stroke="none" d="M 7207,7773 L 8317,7773 8317,6964 7207,6964 7207,7773 Z"/>
 <path fill="rgb(0,69,134)" stroke="none" d="M 2763,7773 L 3874,7773 3874,7375 2763,7375 2763,7773 Z"/>
 <path fill="rgb(49,64,4)" stroke="none" d="M 12761,7773 L 13872,7773 13872,5177 12761,5177 12761,7773 Z"/>
 <path fill="rgb(49,64,4)" stroke="none" d="M 8317,7773 L 9428,7773 9428,6880 8317,6880 8317,7773 Z"/>
 <path fill="rgb(49,64,4)" stroke="none" d="M 3874,7773 L 4985,7773 4985,6766 3874,6766 3874,7773 Z"/>
 <path fill="rgb(153,0,0)" stroke="none" d="M 13872,7773 L 14983,7773 14983,3010 13872,3010 13872,7773 Z"/>
 <path fill="rgb(153,0,0)" stroke="none" d="M 9428,7773 L 10539,7773 10539,6772 9428,6772 9428,7773 Z"/>
 <path fill="rgb(153,0,0)" stroke="none" d="M 4985,7773 L 6096,7773 6096,6727 4985,6727 4985,7773 Z"/>
 <text class="TextShape"><tspan class="TextParagraph" font-family="Liberation Sans, sans-serif" font-size="353px" font-weight="400"><tspan class="TextPosition" x="3226" y="8739"/><tspan class="TextPosition" x="3226" y="8739"><tspan fill="rgb(0,0,0)" stroke="none">bez JavaScriptu</tspan></tspan></tspan></text>
 <text class="TextShape"><tspan class="TextParagraph" font-family="Liberation Sans, sans-serif" font-size="353px" font-weight="400"><tspan class="TextPosition" x="6810" y="8341"/><tspan class="TextPosition" x="6810" y="8341"><tspan fill="rgb(0,0,0)" stroke="none">s JavaScriptem bez reklam</tspan></tspan></tspan></text>
 <text class="TextShape"><tspan class="TextParagraph" font-family="Liberation Sans, sans-serif" font-size="353px" font-weight="400"><tspan class="TextPosition" x="11160" y="8739"/><tspan class="TextPosition" x="11160" y="8739"><tspan fill="rgb(0,0,0)" stroke="none">s JavaScriptem a reklamami</tspan></tspan></tspan></text>
 <text class="TextShape"><tspan class="TextParagraph" font-family="Liberation Sans, sans-serif" font-size="353px" font-weight="400"><tspan class="TextPosition" x="1297" y="7894"/><tspan class="TextPosition" x="1297" y="7894"><tspan fill="rgb(0,0,0)" stroke="none">0,00</tspan></tspan></tspan></text>
 <text class="TextShape"><tspan class="TextParagraph" font-family="Liberation Sans, sans-serif" font-size="353px" font-weight="400"><tspan class="TextPosition" x="1297" y="7204"/><tspan class="TextPosition" x="1297" y="7204"><tspan fill="rgb(0,0,0)" stroke="none">1,00</tspan></tspan></tspan></text>
 <text class="TextShape"><tspan class="TextParagraph" font-family="Liberation Sans, sans-serif" font-size="353px" font-weight="400"><tspan class="TextPosition" x="1297" y="6514"/><tspan class="TextPosition" x="1297" y="6514"><tspan fill="rgb(0,0,0)" stroke="none">2,00</tspan></tspan></tspan></text>
 <text class="TextShape"><tspan class="TextParagraph" font-family="Liberation Sans, sans-serif" font-size="353px" font-weight="400"><tspan class="TextPosition" x="1297" y="5824"/><tspan class="TextPosition" x="1297" y="5824"><tspan fill="rgb(0,0,0)" stroke="none">3,00</tspan></tspan></tspan></text>
 <text class="TextShape"><tspan class="TextParagraph" font-family="Liberation Sans, sans-serif" font-size="353px" font-weight="400"><tspan class="TextPosition" x="1297" y="5135"/><tspan class="TextPosition" x="1297" y="5135"><tspan fill="rgb(0,0,0)" stroke="none">4,00</tspan></tspan></tspan></text>
 <text class="TextShape"><tspan class="TextParagraph" font-family="Liberation Sans, sans-serif" font-size="353px" font-weight="400"><tspan class="TextPosition" x="1297" y="4445"/><tspan class="TextPosition" x="1297" y="4445"><tspan fill="rgb(0,0,0)" stroke="none">5,00</tspan></tspan></tspan></text>
 <text class="TextShape"><tspan class="TextParagraph" font-family="Liberation Sans, sans-serif" font-size="353px" font-weight="400"><tspan class="TextPosition" x="1297" y="3755"/><tspan class="TextPosition" x="1297" y="3755"><tspan fill="rgb(0,0,0)" stroke="none">6,00</tspan></tspan></tspan></text>
 <text class="TextShape"><tspan class="TextParagraph" font-family="Liberation Sans, sans-serif" font-size="353px" font-weight="400"><tspan class="TextPosition" x="1297" y="3065"/><tspan class="TextPosition" x="1297" y="3065"><tspan fill="rgb(0,0,0)" stroke="none">7,00</tspan></tspan></tspan></text>
 <text class="TextShape"><tspan class="TextParagraph" font-family="Liberation Sans, sans-serif" font-size="353px" font-weight="400"><tspan class="TextPosition" x="1297" y="2376"/><tspan class="TextPosition" x="1297" y="2376"><tspan fill="rgb(0,0,0)" stroke="none">8,00</tspan></tspan></tspan></text>
 <text class="TextShape"><tspan class="TextParagraph" font-family="Liberation Sans, sans-serif" font-size="459px" font-weight="400"><tspan class="TextPosition" x="5684" y="851"/><tspan class="TextPosition" x="5684" y="851"><tspan fill="rgb(0,0,0)" stroke="none">Doba načítání napoprvé</tspan></tspan></tspan></text>
 <path fill="rgb(0,69,134)" stroke="none" d="M 6291,1684 L 6186,1684 6186,1473 6397,1473 6397,1684 6291,1684 Z"/>
 <path fill="rgb(49,64,4)" stroke="none" d="M 7630,1684 L 7525,1684 7525,1473 7736,1473 7736,1684 7630,1684 Z"/>
 <path fill="rgb(153,0,0)" stroke="none" d="M 8810,1684 L 8704,1684 8704,1473 8915,1473 8915,1684 8810,1684 Z"/>
 <text class="TextShape"><tspan class="TextParagraph" font-family="Liberation Sans, sans-serif" font-size="353px" font-weight="400"><tspan class="TextPosition" x="6497" y="1698"/><tspan class="TextPosition" x="6497" y="1698"><tspan fill="rgb(0,0,0)" stroke="none">DOM</tspan></tspan></tspan></text>
 <text class="TextShape"><tspan class="TextParagraph" font-family="Liberation Sans, sans-serif" font-size="353px" font-weight="400"><tspan class="TextPosition" x="7836" y="1698"/><tspan class="TextPosition" x="7836" y="1698"><tspan fill="rgb(0,0,0)" stroke="none">load</tspan></tspan></tspan></text>
 <text class="TextShape"><tspan class="TextParagraph" font-family="Liberation Sans, sans-serif" font-size="353px" font-weight="400"><tspan class="TextPosition" x="9015" y="1698"/><tspan class="TextPosition" x="9015" y="1698"><tspan fill="rgb(0,0,0)" stroke="none">finish</tspan></tspan></tspan></text>
 <text class="TextShape"><tspan class="TextParagraph" font-family="Liberation Sans, sans-serif" font-size="353px" font-weight="400"><tspan class="TextPosition" x="531" y="5310"/><tspan class="TextPosition" x="531" y="5310"><tspan fill="rgb(0,0,0)" stroke="none">[s]</tspan></tspan></tspan></text>
</svg>