<?xml version="1.0" encoding="UTF-8"?>
<!DOCTYPE svg PUBLIC "-//W3C//DTD SVG 1.1//EN" "http://www.w3.org/Graphics/SVG/1.1/DTD/svg11.dtd">
<svg width="186mm" height="113mm" viewBox="0 0 18600 11300" version="1.1" baseProfile="tiny" xmlns="http://www.w3.org/2000/svg" stroke-width="28.222" stroke-linejoin="round" xml:space="preserve">
 <path fill="rgb(255,255,255)" stroke="none" d="M 9304,11267 L 0,11267 0,0 18607,0 18607,11267 9304,11267 Z"/>
 <path fill="none" stroke="rgb(179,179,179)" stroke-linejoin="round" d="M 9986,9414 L 2666,9414 2666,1207 17307,1207 17307,9414 9986,9414 Z"/>
 <path fill="none" stroke="rgb(179,179,179)" stroke-linejoin="round" d="M 17307,9413 L 2666,9413"/>
 <path fill="none" stroke="rgb(179,179,179)" stroke-linejoin="round" d="M 17307,8045 L 2666,8045"/>
 <path fill="none" stroke="rgb(179,179,179)" stroke-linejoin="round" d="M 17307,6677 L 2666,6677"/>
 <path fill="none" stroke="rgb(179,179,179)" stroke-linejoin="round" d="M 17307,5310 L 2666,5310"/>
 <path fill="none" stroke="rgb(179,179,179)" stroke-linejoin="round" d="M 17307,3942 L 2666,3942"/>
 <path fill="none" stroke="rgb(179,179,179)" stroke-linejoin="round" d="M 17307,2574 L 2666,2574"/>
 <path fill="none" stroke="rgb(179,179,179)" stroke-linejoin="round" d="M 17307,1206 L 2666,1206"/>
 <path fill="none" stroke="rgb(179,179,179)" stroke-linejoin="round" d="M 2666,9563 L 2666,9413"/>
 <path fill="none" stroke="rgb(179,179,179)" stroke-linejoin="round" d="M 2666,9563 L 2666,9413"/>
 <path fill="none" stroke="rgb(179,179,179)" stroke-linejoin="round" d="M 4757,9563 L 4757,9413"/>
 <path fill="none" stroke="rgb(179,179,179)" stroke-linejoin="round" d="M 4757,9563 L 4757,9413"/>
 <path fill="none" stroke="rgb(179,179,179)" stroke-linejoin="round" d="M 6849,9563 L 6849,9413"/>
 <path fill="none" stroke="rgb(179,179,179)" stroke-linejoin="round" d="M 6849,9563 L 6849,9413"/>
 <path fill="none" stroke="rgb(179,179,179)" stroke-linejoin="round" d="M 8941,9563 L 8941,9413"/>
 <path fill="none" stroke="rgb(179,179,179)" stroke-linejoin="round" d="M 8941,9563 L 8941,9413"/>
 <path fill="none" stroke="rgb(179,179,179)" stroke-linejoin="round" d="M 11031,9563 L 11031,9413"/>
 <path fill="none" stroke="rgb(179,179,179)" stroke-linejoin="round" d="M 11031,9563 L 11031,9413"/>
 <path fill="none" stroke="rgb(179,179,179)" stroke-linejoin="round" d="M 13123,9563 L 13123,9413"/>
 <path fill="none" stroke="rgb(179,179,179)" stroke-linejoin="round" d="M 13123,9563 L 13123,9413"/>
 <path fill="none" stroke="rgb(179,179,179)" stroke-linejoin="round" d="M 15215,9563 L 15215,9413"/>
 <path fill="none" stroke="rgb(179,179,179)" stroke-linejoin="round" d="M 15215,9563 L 15215,9413"/>
 <path fill="none" stroke="rgb(179,179,179)" stroke-linejoin="round" d="M 17307,9563 L 17307,9413"/>
 <path fill="none" stroke="rgb(179,179,179)" stroke-linejoin="round" d="M 17307,9563 L 17307,9413"/>
 <path fill="none" stroke="rgb(179,179,179)" stroke-linejoin="round" d="M 2666,9413 L 17307,9413"/>
 <path fill="none" stroke="rgb(179,179,179)" stroke-linejoin="round" d="M 2516,9413 L 2666,9413"/>
 <path fill="none" stroke="rgb(179,179,179)" stroke-linejoin="round" d="M 2516,9413 L 2666,9413"/>
 <path fill="none" stroke="rgb(179,179,179)" stroke-linejoin="round" d="M 2516,8045 L 2666,8045"/>
 <path fill="none" stroke="rgb(179,179,179)" stroke-linejoin="round" d="M 2516,8045 L 2666,8045"/>
 <path fill="none" stroke="rgb(179,179,179)" stroke-linejoin="round" d="M 2516,6677 L 2666,6677"/>
 <path fill="none" stroke="rgb(179,179,179)" stroke-linejoin="round" d="M 2516,6677 L 2666,6677"/>
 <path fill="none" stroke="rgb(179,179,179)" stroke-linejoin="round" d="M 2516,5310 L 2666,5310"/>
 <path fill="none" stroke="rgb(179,179,179)" stroke-linejoin="round" d="M 2516,5310 L 2666,5310"/>
 <path fill="none" stroke="rgb(179,179,179)" stroke-linejoin="round" d="M 2516,3941 L 2666,3941"/>
 <path fill="none" stroke="rgb(179,179,179)" stroke-linejoin="round" d="M 2516,3941 L 2666,3941"/>
 <path fill="none" stroke="rgb(179,179,179)" stroke-linejoin="round" d="M 2516,2574 L 2666,2574"/>
 <path fill="none" stroke="rgb(179,179,179)" stroke-linejoin="round" d="M 2516,2574 L 2666,2574"/>
 <path fill="none" stroke="rgb(179,179,179)" stroke-linejoin="round" d="M 2516,1206 L 2666,1206"/>
 <path fill="none" stroke="rgb(179,179,179)" stroke-linejoin="round" d="M 2516,1206 L 2666,1206"/>
 <path fill="none" stroke="rgb(179,179,179)" stroke-linejoin="round" d="M 2666,9413 L 2666,1206"/>
 <path fill="none" stroke="rgb(87,157,28)" stroke-width="80" stroke-linejoin="round" d="M 3502,9214 L 4339,8991 6012,7796 9358,6020 16051,2076"/>
 <path fill="rgb(87,157,28)" stroke="none" d="M 3377,9214 L 3502,9339 3627,9214 3502,9089 3377,9214 Z"/>
 <path fill="none" stroke="rgb(87,157,28)" stroke-linejoin="round" d="M 3377,9214 L 3502,9339 3627,9214 3502,9089 3377,9214 Z"/>
 <path fill="rgb(87,157,28)" stroke="none" d="M 4214,8991 L 4339,9116 4464,8991 4339,8866 4214,8991 Z"/>
 <path fill="none" stroke="rgb(87,157,28)" stroke-linejoin="round" d="M 4214,8991 L 4339,9116 4464,8991 4339,8866 4214,8991 Z"/>
 <path fill="rgb(87,157,28)" stroke="none" d="M 5887,7796 L 6012,7921 6137,7796 6012,7671 5887,7796 Z"/>
 <path fill="none" stroke="rgb(87,157,28)" stroke-linejoin="round" d="M 5887,7796 L 6012,7921 6137,7796 6012,7671 5887,7796 Z"/>
 <path fill="rgb(87,157,28)" stroke="none" d="M 9234,6020 L 9358,6145 9483,6020 9358,5895 9234,6020 Z"/>
 <path fill="none" stroke="rgb(87,157,28)" stroke-linejoin="round" d="M 9234,6020 L 9358,6145 9483,6020 9358,5895 9234,6020 Z"/>
 <path fill="rgb(87,157,28)" stroke="none" d="M 15926,2076 L 16051,2201 16176,2076 16051,1951 15926,2076 Z"/>
 <path fill="none" stroke="rgb(87,157,28)" stroke-linejoin="round" d="M 15926,2076 L 16051,2201 16176,2076 16051,1951 15926,2076 Z"/>
 <path fill="none" stroke="rgb(0,69,134)" stroke-width="80" stroke-linejoin="round" d="M 3502,9191 L 4339,8931 6012,8450 9358,7342 16051,4988"/>
 <path fill="rgb(0,69,134)" stroke="none" d="M 3377,9066 L 3377,9316 3627,9316 3627,9066 3377,9066 Z"/>
 <path fill="none" stroke="rgb(0,69,134)" stroke-linejoin="round" d="M 3377,9066 L 3377,9316 3627,9316 3627,9066 3377,9066 Z"/>
 <path fill="rgb(0,69,134)" stroke="none" d="M 4214,8806 L 4214,9056 4464,9056 4464,8806 4214,8806 Z"/>
 <path fill="none" stroke="rgb(0,69,134)" stroke-linejoin="round" d="M 4214,8806 L 4214,9056 4464,9056 4464,8806 4214,8806 Z"/>
 <path fill="rgb(0,69,134)" stroke="none" d="M 5887,8325 L 5887,8575 6137,8575 6137,8325 5887,8325 Z"/>
 <path fill="none" stroke="rgb(0,69,134)" stroke-linejoin="round" d="M 5887,8325 L 5887,8575 6137,8575 6137,8325 5887,8325 Z"/>
 <path fill="rgb(0,69,134)" stroke="none" d="M 9234,7217 L 9234,7467 9483,7467 9483,7217 9234,7217 Z"/>
 <path fill="none" stroke="rgb(0,69,134)" stroke-linejoin="round" d="M 9234,7217 L 9234,7467 9483,7467 9483,7217 9234,7217 Z"/>
 <path fill="rgb(0,69,134)" stroke="none" d="M 15926,4863 L 15926,5113 16176,5113 16176,4863 15926,4863 Z"/>
 <path fill="none" stroke="rgb(0,69,134)" stroke-linejoin="round" d="M 15926,4863 L 15926,5113 16176,5113 16176,4863 15926,4863 Z"/>
 <text class="TextShape"><tspan class="TextParagraph" font-family="Liberation Sans" font-size="353px" font-weight="400"><tspan class="TextPosition" x="2573" y="9981"/><tspan class="TextPosition" x="2573" y="9981"><tspan fill="rgb(0,0,0)" stroke="none">0</tspan></tspan></tspan></text>
 <text class="TextShape"><tspan class="TextParagraph" font-family="Liberation Sans" font-size="353px" font-weight="400"><tspan class="TextPosition" x="4109" y="9981"/><tspan class="TextPosition" x="4109" y="9981"><tspan fill="rgb(0,0,0)" stroke="none">5000000</tspan></tspan></tspan></text>
 <text class="TextShape"><tspan class="TextParagraph" font-family="Liberation Sans" font-size="353px" font-weight="400"><tspan class="TextPosition" x="6108" y="9981"/><tspan class="TextPosition" x="6108" y="9981"><tspan fill="rgb(0,0,0)" stroke="none">10000000</tspan></tspan></tspan></text>
 <text class="TextShape"><tspan class="TextParagraph" font-family="Liberation Sans" font-size="353px" font-weight="400"><tspan class="TextPosition" x="8200" y="9981"/><tspan class="TextPosition" x="8200" y="9981"><tspan fill="rgb(0,0,0)" stroke="none">15000000</tspan></tspan></tspan></text>
 <text class="TextShape"><tspan class="TextParagraph" font-family="Liberation Sans" font-size="353px" font-weight="400"><tspan class="TextPosition" x="10291" y="9981"/><tspan class="TextPosition" x="10291" y="9981"><tspan fill="rgb(0,0,0)" stroke="none">20000000</tspan></tspan></tspan></text>
 <text class="TextShape"><tspan class="TextParagraph" font-family="Liberation Sans" font-size="353px" font-weight="400"><tspan class="TextPosition" x="12383" y="9981"/><tspan class="TextPosition" x="12383" y="9981"><tspan fill="rgb(0,0,0)" stroke="none">25000000</tspan></tspan></tspan></text>
 <text class="TextShape"><tspan class="TextParagraph" font-family="Liberation Sans" font-size="353px" font-weight="400"><tspan class="TextPosition" x="14475" y="9981"/><tspan class="TextPosition" x="14475" y="9981"><tspan fill="rgb(0,0,0)" stroke="none">30000000</tspan></tspan></tspan></text>
 <text class="TextShape"><tspan class="TextParagraph" font-family="Liberation Sans" font-size="353px" font-weight="400"><tspan class="TextPosition" x="16567" y="9981"/><tspan class="TextPosition" x="16567" y="9981"><tspan fill="rgb(0,0,0)" stroke="none">35000000</tspan></tspan></tspan></text>
 <text class="TextShape"><tspan class="TextParagraph" font-family="Liberation Sans" font-size="353px" font-weight="400"><tspan class="TextPosition" x="1755" y="9534"/><tspan class="TextPosition" x="1755" y="9534"><tspan fill="rgb(0,0,0)" stroke="none">0,00</tspan></tspan></tspan></text>
 <text class="TextShape"><tspan class="TextParagraph" font-family="Liberation Sans" font-size="353px" font-weight="400"><tspan class="TextPosition" x="1384" y="8166"/><tspan class="TextPosition" x="1384" y="8166"><tspan fill="rgb(0,0,0)" stroke="none">200,00</tspan></tspan></tspan></text>
 <text class="TextShape"><tspan class="TextParagraph" font-family="Liberation Sans" font-size="353px" font-weight="400"><tspan class="TextPosition" x="1384" y="6798"/><tspan class="TextPosition" x="1384" y="6798"><tspan fill="rgb(0,0,0)" stroke="none">400,00</tspan></tspan></tspan></text>
 <text class="TextShape"><tspan class="TextParagraph" font-family="Liberation Sans" font-size="353px" font-weight="400"><tspan class="TextPosition" x="1384" y="5430"/><tspan class="TextPosition" x="1384" y="5430"><tspan fill="rgb(0,0,0)" stroke="none">600,00</tspan></tspan></tspan></text>
 <text class="TextShape"><tspan class="TextParagraph" font-family="Liberation Sans" font-size="353px" font-weight="400"><tspan class="TextPosition" x="1384" y="4061"/><tspan class="TextPosition" x="1384" y="4061"><tspan fill="rgb(0,0,0)" stroke="none">800,00</tspan></tspan></tspan></text>
 <text class="TextShape"><tspan class="TextParagraph" font-family="Liberation Sans" font-size="353px" font-weight="400"><tspan class="TextPosition" x="1199" y="2694"/><tspan class="TextPosition" x="1199" y="2694"><tspan fill="rgb(0,0,0)" stroke="none">1000,00</tspan></tspan></tspan></text>
 <text class="TextShape"><tspan class="TextParagraph" font-family="Liberation Sans" font-size="353px" font-weight="400"><tspan class="TextPosition" x="1199" y="1326"/><tspan class="TextPosition" x="1199" y="1326"><tspan fill="rgb(0,0,0)" stroke="none">1200,00</tspan></tspan></tspan></text>
 <path fill="none" stroke="rgb(0,69,134)" stroke-width="80" stroke-linejoin="round" d="M 7519,482 L 8319,482"/>
 <path fill="rgb(0,69,134)" stroke="none" d="M 7813,377 L 7813,588 8024,588 8024,377 7813,377 Z"/>
 <path fill="none" stroke="rgb(0,69,134)" stroke-linejoin="round" d="M 7813,377 L 7813,588 8024,588 8024,377 7813,377 Z"/>
 <path fill="none" stroke="rgb(87,157,28)" stroke-width="80" stroke-linejoin="round" d="M 9313,482 L 10113,482"/>
 <path fill="rgb(87,157,28)" stroke="none" d="M 9607,482 L 9713,588 9818,482 9713,377 9607,482 Z"/>
 <path fill="none" stroke="rgb(87,157,28)" stroke-linejoin="round" d="M 9607,482 L 9713,588 9818,482 9713,377 9607,482 Z"/>
 <text class="TextShape"><tspan class="TextParagraph" font-family="Liberation Sans" font-size="353px" font-weight="400"><tspan class="TextPosition" x="8419" y="602"/><tspan class="TextPosition" x="8419" y="602"><tspan fill="rgb(0,0,0)" stroke="none">Java</tspan></tspan></tspan></text>
 <text class="TextShape"><tspan class="TextParagraph" font-family="Liberation Sans" font-size="353px" font-weight="400"><tspan class="TextPosition" x="10213" y="602"/><tspan class="TextPosition" x="10213" y="602"><tspan fill="rgb(0,0,0)" stroke="none">Scala</tspan></tspan></tspan></text>
 <text class="TextShape"><tspan class="TextParagraph" font-family="Liberation Sans" font-size="318px" font-weight="400"><tspan class="TextPosition" x="9399" y="10673"/><tspan class="TextPosition" x="9399" y="10673"><tspan fill="rgb(0,0,0)" stroke="none">items</tspan></tspan></tspan></text>
 <text class="TextShape" transform="translate(837,5852) rotate(-90) translate(-837,-5852)"><tspan class="TextParagraph" font-family="Liberation Sans" font-size="318px" font-weight="400"><tspan class="TextPosition" x="837" y="5852"/><tspan class="TextPosition" x="837" y="5852"><tspan fill="rgb(0,0,0)" stroke="none">[ms]</tspan></tspan></tspan></text>
</svg>