<?xml version="1.0" encoding="UTF-8"?>
<!DOCTYPE svg PUBLIC "-//W3C//DTD SVG 1.1//EN" "http://www.w3.org/Graphics/SVG/1.1/DTD/svg11.dtd">
<svg width="186mm" height="113mm" viewBox="0 0 18600 11300" version="1.1" baseProfile="tiny" xmlns="http://www.w3.org/2000/svg" stroke-width="28.222" stroke-linejoin="round" xml:space="preserve">
 <path fill="rgb(255,255,255)" stroke="none" d="M 9304,11267 L 0,11267 0,0 18607,0 18607,11267 9304,11267 Z"/>
 <path fill="none" stroke="rgb(179,179,179)" stroke-linejoin="round" d="M 10264,9414 L 3036,9414 3036,1207 17492,1207 17492,9414 10264,9414 Z"/>
 <path fill="none" stroke="rgb(179,179,179)" stroke-linejoin="round" d="M 17492,9413 L 3036,9413"/>
 <path fill="none" stroke="rgb(179,179,179)" stroke-linejoin="round" d="M 17492,8387 L 3036,8387"/>
 <path fill="none" stroke="rgb(179,179,179)" stroke-linejoin="round" d="M 17492,7361 L 3036,7361"/>
 <path fill="none" stroke="rgb(179,179,179)" stroke-linejoin="round" d="M 17492,6335 L 3036,6335"/>
 <path fill="none" stroke="rgb(179,179,179)" stroke-linejoin="round" d="M 17492,5310 L 3036,5310"/>
 <path fill="none" stroke="rgb(179,179,179)" stroke-linejoin="round" d="M 17492,4284 L 3036,4284"/>
 <path fill="none" stroke="rgb(179,179,179)" stroke-linejoin="round" d="M 17492,3258 L 3036,3258"/>
 <path fill="none" stroke="rgb(179,179,179)" stroke-linejoin="round" d="M 17492,2232 L 3036,2232"/>
 <path fill="none" stroke="rgb(179,179,179)" stroke-linejoin="round" d="M 17492,1206 L 3036,1206"/>
 <path fill="none" stroke="rgb(179,179,179)" stroke-linejoin="round" d="M 3036,9563 L 3036,9413"/>
 <path fill="none" stroke="rgb(179,179,179)" stroke-linejoin="round" d="M 3036,9563 L 3036,9413"/>
 <path fill="none" stroke="rgb(179,179,179)" stroke-linejoin="round" d="M 5101,9563 L 5101,9413"/>
 <path fill="none" stroke="rgb(179,179,179)" stroke-linejoin="round" d="M 5101,9563 L 5101,9413"/>
 <path fill="none" stroke="rgb(179,179,179)" stroke-linejoin="round" d="M 7166,9563 L 7166,9413"/>
 <path fill="none" stroke="rgb(179,179,179)" stroke-linejoin="round" d="M 7166,9563 L 7166,9413"/>
 <path fill="none" stroke="rgb(179,179,179)" stroke-linejoin="round" d="M 9231,9563 L 9231,9413"/>
 <path fill="none" stroke="rgb(179,179,179)" stroke-linejoin="round" d="M 9231,9563 L 9231,9413"/>
 <path fill="none" stroke="rgb(179,179,179)" stroke-linejoin="round" d="M 11296,9563 L 11296,9413"/>
 <path fill="none" stroke="rgb(179,179,179)" stroke-linejoin="round" d="M 11296,9563 L 11296,9413"/>
 <path fill="none" stroke="rgb(179,179,179)" stroke-linejoin="round" d="M 13361,9563 L 13361,9413"/>
 <path fill="none" stroke="rgb(179,179,179)" stroke-linejoin="round" d="M 13361,9563 L 13361,9413"/>
 <path fill="none" stroke="rgb(179,179,179)" stroke-linejoin="round" d="M 15426,9563 L 15426,9413"/>
 <path fill="none" stroke="rgb(179,179,179)" stroke-linejoin="round" d="M 15426,9563 L 15426,9413"/>
 <path fill="none" stroke="rgb(179,179,179)" stroke-linejoin="round" d="M 17492,9563 L 17492,9413"/>
 <path fill="none" stroke="rgb(179,179,179)" stroke-linejoin="round" d="M 17492,9563 L 17492,9413"/>
 <path fill="none" stroke="rgb(179,179,179)" stroke-linejoin="round" d="M 3036,9413 L 17492,9413"/>
 <path fill="none" stroke="rgb(179,179,179)" stroke-linejoin="round" d="M 2886,9413 L 3036,9413"/>
 <path fill="none" stroke="rgb(179,179,179)" stroke-linejoin="round" d="M 2886,9413 L 3036,9413"/>
 <path fill="none" stroke="rgb(179,179,179)" stroke-linejoin="round" d="M 2886,8387 L 3036,8387"/>
 <path fill="none" stroke="rgb(179,179,179)" stroke-linejoin="round" d="M 2886,8387 L 3036,8387"/>
 <path fill="none" stroke="rgb(179,179,179)" stroke-linejoin="round" d="M 2886,7361 L 3036,7361"/>
 <path fill="none" stroke="rgb(179,179,179)" stroke-linejoin="round" d="M 2886,7361 L 3036,7361"/>
 <path fill="none" stroke="rgb(179,179,179)" stroke-linejoin="round" d="M 2886,6335 L 3036,6335"/>
 <path fill="none" stroke="rgb(179,179,179)" stroke-linejoin="round" d="M 2886,6335 L 3036,6335"/>
 <path fill="none" stroke="rgb(179,179,179)" stroke-linejoin="round" d="M 2886,5310 L 3036,5310"/>
 <path fill="none" stroke="rgb(179,179,179)" stroke-linejoin="round" d="M 2886,5310 L 3036,5310"/>
 <path fill="none" stroke="rgb(179,179,179)" stroke-linejoin="round" d="M 2886,4284 L 3036,4284"/>
 <path fill="none" stroke="rgb(179,179,179)" stroke-linejoin="round" d="M 2886,4284 L 3036,4284"/>
 <path fill="none" stroke="rgb(179,179,179)" stroke-linejoin="round" d="M 2886,3258 L 3036,3258"/>
 <path fill="none" stroke="rgb(179,179,179)" stroke-linejoin="round" d="M 2886,3258 L 3036,3258"/>
 <path fill="none" stroke="rgb(179,179,179)" stroke-linejoin="round" d="M 2886,2232 L 3036,2232"/>
 <path fill="none" stroke="rgb(179,179,179)" stroke-linejoin="round" d="M 2886,2232 L 3036,2232"/>
 <path fill="none" stroke="rgb(179,179,179)" stroke-linejoin="round" d="M 2886,1206 L 3036,1206"/>
 <path fill="none" stroke="rgb(179,179,179)" stroke-linejoin="round" d="M 2886,1206 L 3036,1206"/>
 <path fill="none" stroke="rgb(179,179,179)" stroke-linejoin="round" d="M 3036,9413 L 3036,1206"/>
 <path fill="none" stroke="rgb(255,211,32)" stroke-width="80" stroke-linejoin="round" d="M 3862,8977 L 4688,8542 6340,7622 9643,5522 16252,1786"/>
 <path fill="rgb(255,211,32)" stroke="none" d="M 3737,8852 L 3862,9102 3987,8852 3737,8852 Z"/>
 <path fill="none" stroke="rgb(255,211,32)" stroke-linejoin="round" d="M 3737,8852 L 3862,9102 3987,8852 3737,8852 Z"/>
 <path fill="rgb(255,211,32)" stroke="none" d="M 4563,8417 L 4688,8667 4813,8417 4563,8417 Z"/>
 <path fill="none" stroke="rgb(255,211,32)" stroke-linejoin="round" d="M 4563,8417 L 4688,8667 4813,8417 4563,8417 Z"/>
 <path fill="rgb(255,211,32)" stroke="none" d="M 6215,7497 L 6340,7747 6465,7497 6215,7497 Z"/>
 <path fill="none" stroke="rgb(255,211,32)" stroke-linejoin="round" d="M 6215,7497 L 6340,7747 6465,7497 6215,7497 Z"/>
 <path fill="rgb(255,211,32)" stroke="none" d="M 9518,5397 L 9643,5646 9768,5397 9518,5397 Z"/>
 <path fill="none" stroke="rgb(255,211,32)" stroke-linejoin="round" d="M 9518,5397 L 9643,5646 9768,5397 9518,5397 Z"/>
 <path fill="rgb(255,211,32)" stroke="none" d="M 16127,1661 L 16252,1911 16377,1661 16127,1661 Z"/>
 <path fill="none" stroke="rgb(255,211,32)" stroke-linejoin="round" d="M 16127,1661 L 16252,1911 16377,1661 16127,1661 Z"/>
 <path fill="none" stroke="rgb(87,157,28)" stroke-width="80" stroke-linejoin="round" d="M 3862,9410 L 4688,9406 6340,9388 9643,9362 16252,9302"/>
 <path fill="rgb(87,157,28)" stroke="none" d="M 3737,9410 L 3862,9535 3987,9410 3862,9285 3737,9410 Z"/>
 <path fill="none" stroke="rgb(87,157,28)" stroke-linejoin="round" d="M 3737,9410 L 3862,9535 3987,9410 3862,9285 3737,9410 Z"/>
 <path fill="rgb(87,157,28)" stroke="none" d="M 4563,9406 L 4688,9531 4813,9406 4688,9281 4563,9406 Z"/>
 <path fill="none" stroke="rgb(87,157,28)" stroke-linejoin="round" d="M 4563,9406 L 4688,9531 4813,9406 4688,9281 4563,9406 Z"/>
 <path fill="rgb(87,157,28)" stroke="none" d="M 6215,9388 L 6340,9513 6465,9388 6340,9263 6215,9388 Z"/>
 <path fill="none" stroke="rgb(87,157,28)" stroke-linejoin="round" d="M 6215,9388 L 6340,9513 6465,9388 6340,9263 6215,9388 Z"/>
 <path fill="rgb(87,157,28)" stroke="none" d="M 9518,9362 L 9643,9487 9768,9362 9643,9237 9518,9362 Z"/>
 <path fill="none" stroke="rgb(87,157,28)" stroke-linejoin="round" d="M 9518,9362 L 9643,9487 9768,9362 9643,9237 9518,9362 Z"/>
 <path fill="rgb(87,157,28)" stroke="none" d="M 16127,9302 L 16252,9427 16377,9302 16252,9177 16127,9302 Z"/>
 <path fill="none" stroke="rgb(87,157,28)" stroke-linejoin="round" d="M 16127,9302 L 16252,9427 16377,9302 16252,9177 16127,9302 Z"/>
 <path fill="none" stroke="rgb(0,69,134)" stroke-width="80" stroke-linejoin="round" d="M 3862,9409 L 4688,9405 6340,9398 9643,9381 16252,9346"/>
 <path fill="rgb(0,69,134)" stroke="none" d="M 3737,9284 L 3737,9534 3987,9534 3987,9284 3737,9284 Z"/>
 <path fill="none" stroke="rgb(0,69,134)" stroke-linejoin="round" d="M 3737,9284 L 3737,9534 3987,9534 3987,9284 3737,9284 Z"/>
 <path fill="rgb(0,69,134)" stroke="none" d="M 4563,9280 L 4563,9530 4813,9530 4813,9280 4563,9280 Z"/>
 <path fill="none" stroke="rgb(0,69,134)" stroke-linejoin="round" d="M 4563,9280 L 4563,9530 4813,9530 4813,9280 4563,9280 Z"/>
 <path fill="rgb(0,69,134)" stroke="none" d="M 6215,9273 L 6215,9523 6465,9523 6465,9273 6215,9273 Z"/>
 <path fill="none" stroke="rgb(0,69,134)" stroke-linejoin="round" d="M 6215,9273 L 6215,9523 6465,9523 6465,9273 6215,9273 Z"/>
 <path fill="rgb(0,69,134)" stroke="none" d="M 9518,9256 L 9518,9506 9768,9506 9768,9256 9518,9256 Z"/>
 <path fill="none" stroke="rgb(0,69,134)" stroke-linejoin="round" d="M 9518,9256 L 9518,9506 9768,9506 9768,9256 9518,9256 Z"/>
 <path fill="rgb(0,69,134)" stroke="none" d="M 16127,9221 L 16127,9471 16377,9471 16377,9221 16127,9221 Z"/>
 <path fill="none" stroke="rgb(0,69,134)" stroke-linejoin="round" d="M 16127,9221 L 16127,9471 16377,9471 16377,9221 16127,9221 Z"/>
 <text class="TextShape"><tspan class="TextParagraph" font-family="Liberation Sans, sans-serif" font-size="353px" font-weight="400"><tspan class="TextPosition" x="2943" y="9981"/><tspan class="TextPosition" x="2943" y="9981"><tspan fill="rgb(0,0,0)" stroke="none">0</tspan></tspan></tspan></text>
 <text class="TextShape"><tspan class="TextParagraph" font-family="Liberation Sans, sans-serif" font-size="353px" font-weight="400"><tspan class="TextPosition" x="4453" y="9981"/><tspan class="TextPosition" x="4453" y="9981"><tspan fill="rgb(0,0,0)" stroke="none">5000000</tspan></tspan></tspan></text>
 <text class="TextShape"><tspan class="TextParagraph" font-family="Liberation Sans, sans-serif" font-size="353px" font-weight="400"><tspan class="TextPosition" x="6425" y="9981"/><tspan class="TextPosition" x="6425" y="9981"><tspan fill="rgb(0,0,0)" stroke="none">10000000</tspan></tspan></tspan></text>
 <text class="TextShape"><tspan class="TextParagraph" font-family="Liberation Sans, sans-serif" font-size="353px" font-weight="400"><tspan class="TextPosition" x="8490" y="9981"/><tspan class="TextPosition" x="8490" y="9981"><tspan fill="rgb(0,0,0)" stroke="none">15000000</tspan></tspan></tspan></text>
 <text class="TextShape"><tspan class="TextParagraph" font-family="Liberation Sans, sans-serif" font-size="353px" font-weight="400"><tspan class="TextPosition" x="10556" y="9981"/><tspan class="TextPosition" x="10556" y="9981"><tspan fill="rgb(0,0,0)" stroke="none">20000000</tspan></tspan></tspan></text>
 <text class="TextShape"><tspan class="TextParagraph" font-family="Liberation Sans, sans-serif" font-size="353px" font-weight="400"><tspan class="TextPosition" x="12621" y="9981"/><tspan class="TextPosition" x="12621" y="9981"><tspan fill="rgb(0,0,0)" stroke="none">25000000</tspan></tspan></tspan></text>
 <text class="TextShape"><tspan class="TextParagraph" font-family="Liberation Sans, sans-serif" font-size="353px" font-weight="400"><tspan class="TextPosition" x="14686" y="9981"/><tspan class="TextPosition" x="14686" y="9981"><tspan fill="rgb(0,0,0)" stroke="none">30000000</tspan></tspan></tspan></text>
 <text class="TextShape"><tspan class="TextParagraph" font-family="Liberation Sans, sans-serif" font-size="353px" font-weight="400"><tspan class="TextPosition" x="16752" y="9981"/><tspan class="TextPosition" x="16752" y="9981"><tspan fill="rgb(0,0,0)" stroke="none">35000000</tspan></tspan></tspan></text>
 <text class="TextShape"><tspan class="TextParagraph" font-family="Liberation Sans, sans-serif" font-size="353px" font-weight="400"><tspan class="TextPosition" x="2125" y="9534"/><tspan class="TextPosition" x="2125" y="9534"><tspan fill="rgb(0,0,0)" stroke="none">0,00</tspan></tspan></tspan></text>
 <text class="TextShape"><tspan class="TextParagraph" font-family="Liberation Sans, sans-serif" font-size="353px" font-weight="400"><tspan class="TextPosition" x="1384" y="8508"/><tspan class="TextPosition" x="1384" y="8508"><tspan fill="rgb(0,0,0)" stroke="none">10000,00</tspan></tspan></tspan></text>
 <text class="TextShape"><tspan class="TextParagraph" font-family="Liberation Sans, sans-serif" font-size="353px" font-weight="400"><tspan class="TextPosition" x="1384" y="7482"/><tspan class="TextPosition" x="1384" y="7482"><tspan fill="rgb(0,0,0)" stroke="none">20000,00</tspan></tspan></tspan></text>
 <text class="TextShape"><tspan class="TextParagraph" font-family="Liberation Sans, sans-serif" font-size="353px" font-weight="400"><tspan class="TextPosition" x="1384" y="6456"/><tspan class="TextPosition" x="1384" y="6456"><tspan fill="rgb(0,0,0)" stroke="none">30000,00</tspan></tspan></tspan></text>
 <text class="TextShape"><tspan class="TextParagraph" font-family="Liberation Sans, sans-serif" font-size="353px" font-weight="400"><tspan class="TextPosition" x="1384" y="5430"/><tspan class="TextPosition" x="1384" y="5430"><tspan fill="rgb(0,0,0)" stroke="none">40000,00</tspan></tspan></tspan></text>
 <text class="TextShape"><tspan class="TextParagraph" font-family="Liberation Sans, sans-serif" font-size="353px" font-weight="400"><tspan class="TextPosition" x="1384" y="4404"/><tspan class="TextPosition" x="1384" y="4404"><tspan fill="rgb(0,0,0)" stroke="none">50000,00</tspan></tspan></tspan></text>
 <text class="TextShape"><tspan class="TextParagraph" font-family="Liberation Sans, sans-serif" font-size="353px" font-weight="400"><tspan class="TextPosition" x="1384" y="3378"/><tspan class="TextPosition" x="1384" y="3378"><tspan fill="rgb(0,0,0)" stroke="none">60000,00</tspan></tspan></tspan></text>
 <text class="TextShape"><tspan class="TextParagraph" font-family="Liberation Sans, sans-serif" font-size="353px" font-weight="400"><tspan class="TextPosition" x="1384" y="2352"/><tspan class="TextPosition" x="1384" y="2352"><tspan fill="rgb(0,0,0)" stroke="none">70000,00</tspan></tspan></tspan></text>
 <text class="TextShape"><tspan class="TextParagraph" font-family="Liberation Sans, sans-serif" font-size="353px" font-weight="400"><tspan class="TextPosition" x="1384" y="1326"/><tspan class="TextPosition" x="1384" y="1326"><tspan fill="rgb(0,0,0)" stroke="none">80000,00</tspan></tspan></tspan></text>
 <path fill="none" stroke="rgb(0,69,134)" stroke-width="80" stroke-linejoin="round" d="M 6423,482 L 7223,482"/>
 <path fill="rgb(0,69,134)" stroke="none" d="M 6717,377 L 6717,588 6928,588 6928,377 6717,377 Z"/>
 <path fill="none" stroke="rgb(0,69,134)" stroke-linejoin="round" d="M 6717,377 L 6717,588 6928,588 6928,377 6717,377 Z"/>
 <path fill="none" stroke="rgb(87,157,28)" stroke-width="80" stroke-linejoin="round" d="M 8218,482 L 9018,482"/>
 <path fill="rgb(87,157,28)" stroke="none" d="M 8512,482 L 8618,588 8723,482 8618,377 8512,482 Z"/>
 <path fill="none" stroke="rgb(87,157,28)" stroke-linejoin="round" d="M 8512,482 L 8618,588 8723,482 8618,377 8512,482 Z"/>
 <path fill="none" stroke="rgb(255,211,32)" stroke-width="80" stroke-linejoin="round" d="M 10224,482 L 11024,482"/>
 <path fill="rgb(255,211,32)" stroke="none" d="M 10518,377 L 10624,588 10729,377 10518,377 Z"/>
 <path fill="none" stroke="rgb(255,211,32)" stroke-linejoin="round" d="M 10518,377 L 10624,588 10729,377 10518,377 Z"/>
 <text class="TextShape"><tspan class="TextParagraph" font-family="Liberation Sans, sans-serif" font-size="353px" font-weight="400"><tspan class="TextPosition" x="7323" y="602"/><tspan class="TextPosition" x="7323" y="602"><tspan fill="rgb(0,0,0)" stroke="none">Java</tspan></tspan></tspan></text>
 <text class="TextShape"><tspan class="TextParagraph" font-family="Liberation Sans, sans-serif" font-size="353px" font-weight="400"><tspan class="TextPosition" x="9118" y="602"/><tspan class="TextPosition" x="9118" y="602"><tspan fill="rgb(0,0,0)" stroke="none">Scala</tspan></tspan></tspan></text>
 <text class="TextShape"><tspan class="TextParagraph" font-family="Liberation Sans, sans-serif" font-size="353px" font-weight="400"><tspan class="TextPosition" x="11124" y="602"/><tspan class="TextPosition" x="11124" y="602"><tspan fill="rgb(0,0,0)" stroke="none">Groovy</tspan></tspan></tspan></text>
 <text class="TextShape"><tspan class="TextParagraph" font-family="Liberation Sans, sans-serif" font-size="318px" font-weight="400"><tspan class="TextPosition" x="9399" y="10673"/><tspan class="TextPosition" x="9399" y="10673"><tspan fill="rgb(0,0,0)" stroke="none">items</tspan></tspan></tspan></text>
 <text class="TextShape" transform="translate(837,5852) rotate(-90) translate(-837,-5852)"><tspan class="TextParagraph" font-family="Liberation Sans, sans-serif" font-size="318px" font-weight="400"><tspan class="TextPosition" x="837" y="5852"/><tspan class="TextPosition" x="837" y="5852"><tspan fill="rgb(0,0,0)" stroke="none">[ms]</tspan></tspan></tspan></text>
</svg>